<svg width="20" height="19" viewBox="0 0 20 19" fill="none" xmlns="http://www.w3.org/2000/svg">
<path fill-rule="evenodd" clip-rule="evenodd" d="M6.88911 2.26828L9.19646 5.15247L9.08061 5.21683H12.9139L10.555 2.26828H6.88911ZM17.5447 5.21683H14.7175L14.8334 5.15247L12.526 2.26828H14.7696C16.3023 2.26828 17.5447 3.51072 17.5447 5.04335V5.21683ZM7.27695 5.21683L4.93089 2.28425C3.53909 2.43358 2.45526 3.61189 2.45526 5.04335V5.21683H7.27695ZM2.45526 14.5826V6.77781H17.5447V14.5826C17.5447 16.1153 16.3023 17.3577 14.7696 17.3577H5.23033C3.6977 17.3577 2.45526 16.1153 2.45526 14.5826ZM5.23033 0.707306C2.8356 0.707306 0.894287 2.64862 0.894287 5.04335V14.5826C0.894287 16.9774 2.8356 18.9187 5.23033 18.9187H14.7696C17.1644 18.9187 19.1057 16.9774 19.1057 14.5826V5.04335C19.1057 2.64862 17.1644 0.707306 14.7696 0.707306H5.23033ZM12.8184 11.9229C13.1074 11.756 13.1074 11.3388 12.8184 11.1719L8.26553 8.54332C7.97646 8.37643 7.61512 8.58505 7.61512 8.91884L7.61512 14.176C7.61512 14.5098 7.97646 14.7184 8.26553 14.5515L12.8184 11.9229Z" fill="#333333"/>
</svg>
